<svg width="16" height="16" viewBox="0 0 16 16" fill="none" xmlns="http://www.w3.org/2000/svg">
<path fill-rule="evenodd" clip-rule="evenodd" d="M16 8C16 8.489 15.6131 8.8802 15.1294 8.8802C11.6953 8.86063 8.89964 11.6479 8.87062 15.1198C8.87062 15.6088 8.48368 16 8 16C7.51632 16 7.12938 15.6088 7.12938 15.1198C7.10036 11.6479 4.30472 8.86063 0.870617 8.88019C0.386942 8.88019 0 8.489 0 8C0 7.511 0.386942 7.1198 0.870617 7.1198C4.30472 7.13936 7.10036 4.35208 7.12938 0.880196C7.12938 0.391199 7.51632 -2.12203e-08 8 0C8.48368 2.12209e-08 8.87062 0.391199 8.87062 0.880196C8.89964 4.3423 11.6953 7.13936 15.1294 7.1198C15.6131 7.1198 16 7.511 16 8ZM3.48399 8C5.57667 7.23408 7.23621 5.56147 8.00073 3.45209C8.76598 5.55829 10.4251 7.23255 12.5175 7.99947C10.4248 8.76491 8.76502 10.437 8 12.5459C7.23516 10.4375 5.57601 8.76568 3.48399 8Z" fill="#FFA800"/>
</svg>
